<?xml version="1.0" encoding="utf-8"?>
<!-- Generator: Adobe Illustrator 22.0.0, SVG Export Plug-In . SVG Version: 6.00 Build 0)  -->
<svg version="1.1" id="Layer_1" xmlns="http://www.w3.org/2000/svg" xmlns:xlink="http://www.w3.org/1999/xlink" x="0px" y="0px"
	 viewBox="0 0 16 16" enable-background="new 0 0 16 16" xml:space="preserve">
<g>
	<path fill="#0A84FF" d="M2.372,7.834c-0.087,1.616,0.481,3.113,1.472,4.239c0.287,0.326,0.829,0.871,1.65,1.313
		c0.159,0.085,0.727,0.381,1.534,0.572c0.359,0.085,0.67,0.126,0.904,0.148c0.001,0.659,0.002,1.318,0.004,1.977
		c-0.391-0.023-0.876-0.08-1.421-0.21c-0.655-0.157-1.182-0.369-1.553-0.543c-1.105-0.517-1.827-1.159-2.134-1.452
		c-0.243-0.232-0.482-0.49-0.71-0.775c-1.171-1.465-1.829-3.349-1.722-5.371c0.136-2.7,1.604-5.005,3.74-6.327
		C3.705,0.965,3.276,0.524,2.846,0.083h4.237v4.519C6.552,4.038,6.021,3.473,5.49,2.908C3.728,3.857,2.485,5.688,2.372,7.834z"/>
	<g>
		<path fill="#0A84FF" d="M8.084,10.583c-0.662,0-1.285-0.256-1.757-0.721C5.852,9.394,5.588,8.768,5.584,8.1
			C5.579,7.432,5.835,6.803,6.305,6.327c0.473-0.479,1.105-0.744,1.779-0.744c0.661,0,1.285,0.256,1.756,0.721
			c0.981,0.968,0.991,2.554,0.024,3.536C9.39,10.319,8.758,10.583,8.084,10.583z"/>
		<path fill="#0A84FF" d="M8.083,6.083c0.507,0,1.015,0.192,1.405,0.576c0.786,0.776,0.795,2.042,0.019,2.828
			c-0.391,0.397-0.907,0.595-1.424,0.595c-0.507,0-1.015-0.192-1.405-0.576C5.892,8.731,5.884,7.465,6.66,6.679
			C7.051,6.282,7.567,6.083,8.083,6.083 M8.083,5.083L8.083,5.083c-0.809,0-1.567,0.317-2.135,0.893
			c-1.162,1.178-1.149,3.081,0.028,4.243c0.565,0.558,1.313,0.865,2.107,0.865c0.809,0,1.567-0.317,2.135-0.893
			c1.162-1.177,1.149-3.081-0.028-4.243C9.625,5.39,8.877,5.083,8.083,5.083L8.083,5.083z"/>
	</g>
	<path fill="#0A84FF" d="M13.795,8.332c0.087-1.616-0.481-3.113-1.472-4.239c-0.287-0.326-0.828-0.871-1.649-1.313
		C10.515,2.695,9.946,2.399,9.14,2.209C8.781,2.124,8.47,2.082,8.236,2.061C8.235,1.402,8.234,0.742,8.232,0.083
		c0.391,0.023,0.876,0.08,1.421,0.21c0.655,0.157,1.182,0.369,1.553,0.543c1.105,0.517,1.827,1.159,2.134,1.452
		c0.243,0.232,0.482,0.49,0.71,0.775c1.171,1.465,1.829,3.349,1.722,5.371c-0.136,2.7-1.604,5.005-3.74,6.327
		c0.429,0.441,0.859,0.881,1.288,1.322H9.083v-4.519c0.531,0.565,1.062,1.13,1.593,1.695C12.439,12.309,13.682,10.479,13.795,8.332z
		"/>
</g>
</svg>
