<?xml version="1.0" encoding="utf-8"?>
<!-- Generator: Adobe Illustrator 22.0.0, SVG Export Plug-In . SVG Version: 6.00 Build 0)  -->
<svg version="1.1" id="Layer_1" xmlns="http://www.w3.org/2000/svg" xmlns:xlink="http://www.w3.org/1999/xlink" x="0px" y="0px"
	 viewBox="0 0 16 16" enable-background="new 0 0 16 16" xml:space="preserve">
<g>
	<path fill="#B22626" d="M2.288,7.751C2.202,9.367,2.77,10.864,3.76,11.99c0.287,0.326,0.829,0.871,1.65,1.313
		c0.159,0.085,0.727,0.381,1.534,0.572c0.359,0.085,0.67,0.126,0.904,0.148C7.849,14.682,7.85,15.341,7.851,16
		c-0.391-0.023-0.876-0.08-1.421-0.21c-0.655-0.157-1.182-0.369-1.553-0.542c-1.105-0.517-1.827-1.159-2.134-1.452
		c-0.243-0.232-0.482-0.49-0.71-0.775c-1.171-1.465-1.829-3.349-1.722-5.371c0.136-2.7,1.604-5.005,3.74-6.327
		C3.622,0.881,3.192,0.441,2.763,0H7v4.519C6.469,3.955,5.938,3.39,5.407,2.825C3.644,3.774,2.401,5.604,2.288,7.751z"/>
	<path fill="#B22626" d="M13.711,8.249c0.087-1.616-0.481-3.113-1.472-4.239c-0.287-0.326-0.829-0.871-1.65-1.313
		c-0.159-0.085-0.727-0.381-1.534-0.572C8.698,2.04,8.387,1.999,8.153,1.977C8.151,1.318,8.15,0.659,8.149,0
		C8.54,0.023,9.025,0.08,9.57,0.21c0.655,0.157,1.182,0.369,1.553,0.543c1.105,0.517,1.827,1.159,2.134,1.452
		c0.243,0.232,0.482,0.49,0.71,0.775c1.171,1.465,1.829,3.349,1.722,5.371c-0.136,2.7-1.604,5.005-3.74,6.327
		c0.429,0.441,0.859,0.881,1.288,1.322H9v-4.519c0.531,0.565,1.062,1.13,1.593,1.695C12.356,12.226,13.599,10.396,13.711,8.249z"/>
	<g>
		<line fill="none" stroke="#B22626" stroke-miterlimit="10" x1="6" y1="6" x2="10" y2="10"/>
	</g>
	<line fill="none" stroke="#B22626" stroke-miterlimit="10" x1="6" y1="10" x2="10" y2="6"/>
</g>
</svg>
