<?xml version="1.0" encoding="utf-8"?>
<!-- Generator: Adobe Illustrator 22.0.0, SVG Export Plug-In . SVG Version: 6.00 Build 0)  -->
<svg version="1.1" id="Layer_1" xmlns="http://www.w3.org/2000/svg" xmlns:xlink="http://www.w3.org/1999/xlink" x="0px" y="0px"
	 viewBox="0 0 16 16" enable-background="new 0 0 16 16" xml:space="preserve">
<g style="opacity:0.75">
	<path fill="context-fill" d="M2.288,7.751C2.202,9.367,2.77,10.864,3.76,11.99c0.287,0.326,0.829,0.871,1.65,1.313
		c0.159,0.085,0.727,0.381,1.534,0.572c0.359,0.085,0.67,0.126,0.904,0.148C7.849,14.682,7.85,15.341,7.851,16
		c-0.391-0.023-0.876-0.08-1.421-0.21c-0.655-0.157-1.182-0.369-1.553-0.542c-1.105-0.517-1.827-1.159-2.134-1.452
		c-0.243-0.232-0.482-0.49-0.71-0.775c-1.171-1.465-1.829-3.349-1.722-5.371c0.136-2.7,1.604-5.005,3.74-6.327
		C3.622,0.881,3.192,0.441,2.763,0H7v4.519C6.469,3.955,5.938,3.39,5.407,2.825C3.644,3.774,2.401,5.604,2.288,7.751z"/>
	<g>
		<path fill="context-fill" d="M8,6c0.507,0,1.015,0.192,1.405,0.576c0.786,0.776,0.795,2.042,0.019,2.828C9.032,9.801,8.516,10,8,10
			c-0.507,0-1.015-0.192-1.405-0.576C5.809,8.648,5.801,7.381,6.576,6.595C6.968,6.199,7.484,6,8,6 M8,5L8,5
			C7.191,5,6.433,5.317,5.865,5.893C5.302,6.463,4.995,7.219,5,8.02s0.322,1.553,0.893,2.115C6.458,10.693,7.206,11,8,11
			c0.809,0,1.567-0.317,2.135-0.893c0.563-0.57,0.87-1.326,0.865-2.127c-0.005-0.801-0.322-1.553-0.893-2.115
			C9.542,5.307,8.794,5,8,5L8,5z"/>
	</g>
	<path fill="context-fill" d="M13.712,8.249c0.087-1.616-0.481-3.113-1.472-4.239c-0.287-0.326-0.829-0.871-1.65-1.313
		c-0.159-0.085-0.727-0.381-1.534-0.572C8.698,2.04,8.387,1.999,8.153,1.977C8.151,1.318,8.15,0.659,8.149,0
		C8.54,0.023,9.025,0.08,9.57,0.21c0.655,0.157,1.182,0.369,1.553,0.543c1.105,0.517,1.827,1.159,2.134,1.452
		c0.243,0.232,0.482,0.49,0.71,0.775c1.171,1.465,1.829,3.349,1.722,5.371c-0.136,2.7-1.604,5.005-3.74,6.327
		c0.429,0.441,0.859,0.881,1.288,1.322H9v-4.519c0.531,0.565,1.062,1.13,1.593,1.695C12.356,12.226,13.599,10.396,13.712,8.249z"/>
</g>
</svg>
